# xmcd
#
# Track frame offsets: 
#        150
#        15569
#        29383
#        42840
#        52040
#        64563
#        73984
#        83832
#        96603
#        108627
#
# Disc length: 1593 seconds
#
# Revision: 0
# Processed by: cddbd v1.5.2PL0 Copyright (c) Steve Scherf et al.
# Submitted via: ExactAudioCopy v1.0b3
#
DISCID=8a06370a
DTITLE=Ernest Tubb - The Living Legend
DYEAR=1977
DGENRE=Country
TTITLE0=Soldier's Last Letter
TTITLE1=Our Baby's Book
TTITLE2=Blue Eyed Elaine
TTITLE3=Jealous Loving Heart
TTITLE4=Journey's End
TTITLE5=Sometimes I Do
TTITLE6=Half My Heart's In Texas
TTITLE7=Papers And Pens
TTITLE8=A Month Of Sundays
TTITLE9=A Good Mind To Love Her Anyway
EXTD=
EXTT0=
EXTT1=
EXTT2=
EXTT3=
EXTT4=
EXTT5=
EXTT6=
EXTT7=
EXTT8=
EXTT9=
PLAYORDER=
